<svg width="890.5000000000001" height="191.63344591715475" viewBox="0 0 350 75.31915336440669" class="css-1j8o68f">
  <defs id="SvgjsDefs4887"></defs>
  <g id="SvgjsG4888" featurekey="0yvIkK-0" transform="matrix(5.319149306217829,0,0,5.319149306217829,-0.42552900231050084,-31.8085104162693)" fill="#09090b">
    <path d="M12 9.56 l3.2 0 l-3.02 10.44 l-3.18 0 l-1.38 -5.68 l-0.01 0.03 l-0.04 0.19 l-0.11 0.5 l-0.23 0.97 l-0.38 1.6 l-0.57 2.39 l-3.2 0 l-0.13 -0.44 l-0.34 -1.18 l-0.48 -1.68 l-0.55 -1.92 c-0.44 -1.5333 -0.94 -3.2734 -1.5 -5.22 l3.22 0 l1.3 5.24 l0.12 0.62 l0.12 -0.62 l1.22 -5.24 l3.12 0 l1.26 5.26 l0.14 0.6 l0.04 -0.32 c0.01334 -0.09334 0.03334 -0.19334 0.06 -0.3 z M19.52 9.56 l0 10.44 l-3.02 0 l0 -7.22 l0.1 -0.72 l-1.72 0 l1.36 -2.5 l3.28 0 z M19.44 8.7 l-3 0 l0 -2.72 l3 0 l0 2.72 z M23.92 15.68 c-0.72 -0.21334 -1.3133 -0.53998 -1.78 -0.97998 s-0.7 -1.0733 -0.7 -1.9 c0 -1.04 0.36666 -1.8533 1.1 -2.44 s1.7467 -0.88 3.04 -0.88 c0.49334 0 1.0033 0.05334 1.53 0.16 s1.1833 0.3 1.97 0.58 l-1.2 2.16 c-0.41334 -0.14666 -0.77 -0.25666 -1.07 -0.33 s-0.64334 -0.11 -1.03 -0.11 c-0.36 0 -0.64334 0.05 -0.85 0.15 s-0.31 0.26334 -0.31 0.49 c0 0.18666 0.07666 0.32 0.23 0.4 s0.35668 0.16666 0.61002 0.26 l1.08 0.32 c0.36 0.10666 0.69666 0.23332 1.01 0.37998 s0.58 0.33 0.8 0.55 s0.39334 0.49666 0.52 0.83 s0.19 0.74 0.19 1.22 c0 0.50666 -0.10334 0.97666 -0.31 1.41 s-0.50666 0.81 -0.9 1.13 s-0.87334 0.57 -1.44 0.75 s-1.21 0.27 -1.93 0.27 c-0.28 0 -0.55 -0.01 -0.81 -0.03 s-0.51666 -0.05334 -0.77 -0.1 s-0.52 -0.11 -0.8 -0.19 s-0.58 -0.17334 -0.9 -0.28 c0.02666 -0.09334 0.05332 -0.2 0.07998 -0.32 s0.06666 -0.27 0.12 -0.45 s0.11334 -0.39666 0.18 -0.65 s0.15332 -0.56668 0.25998 -0.94002 c0.56 0.14666 1.03 0.25332 1.41 0.31998 s0.76334 0.1 1.15 0.1 c0.16 0 0.33 -0.01334 0.51 -0.04 s0.35 -0.07332 0.51 -0.13998 s0.29334 -0.15332 0.4 -0.25998 s0.16 -0.24666 0.16 -0.42 c0 -0.2 -0.07 -0.34 -0.21 -0.42 s-0.35 -0.16666 -0.63 -0.26 z M39.56 5.98 l0.000019531 13.74 c-0.48 0.10666 -0.94666 0.18666 -1.4 0.24 s-0.86668 0.09334 -1.24 0.12 s-0.69334 0.04 -0.96 0.04 l-0.54 0 c-0.90666 0 -1.67 -0.14 -2.29 -0.42 s-1.12 -0.66 -1.5 -1.14 s-0.65666 -1.0367 -0.83 -1.67 s-0.26 -1.31 -0.26 -2.03 c0 -0.92 0.11666 -1.71 0.35 -2.37 s0.56 -1.2033 0.98 -1.63 s0.92 -0.74332 1.5 -0.94998 s1.2233 -0.31 1.93 -0.31 c0.12 0 0.25666 0.01 0.41 0.03 s0.3 0.04334 0.44 0.07 s0.27 0.05666 0.39 0.09 s0.21334 0.07 0.28 0.11 l0 -1.18 l0.06 -0.26 l-1.8 0 l1.34 -2.48 l3.14 0 z M35.74 17.44 c0.2 0 0.39334 -0.0066602 0.58 -0.02 s0.35332 -0.03334 0.49998 -0.06 l0 -5.12 c-0.09334 -0.01334 -0.2 -0.03334 -0.32 -0.06 c-0.10666 -0.02666 -0.23 -0.04666 -0.37 -0.06 s-0.29666 -0.02 -0.47 -0.02 c-0.62666 0 -1.1533 0.21334 -1.58 0.64 s-0.64 1.1333 -0.64 2.12 c0 0.49334 0.06 0.90668 0.18 1.24 s0.28334 0.6 0.49 0.8 s0.45 0.34 0.73 0.42 s0.58 0.12 0.9 0.12 z M46.28 9.44 c0.69334 0 1.34 0.09668 1.94 0.29002 s1.1167 0.50334 1.55 0.93 s0.77334 0.98 1.02 1.66 s0.37 1.5 0.37 2.46 s-0.12334 1.78 -0.37 2.46 s-0.58666 1.2333 -1.02 1.66 s-0.95 0.73666 -1.55 0.93 s-1.2467 0.29 -1.94 0.29 c-0.70666 0 -1.3567 -0.09666 -1.95 -0.29 s-1.1067 -0.50334 -1.54 -0.93 s-0.77334 -0.98 -1.02 -1.66 s-0.37 -1.5 -0.37 -2.46 c0 -0.94666 0.12334 -1.7567 0.37 -2.43 s0.58666 -1.2267 1.02 -1.66 s0.94668 -0.75 1.54 -0.95 s1.2433 -0.3 1.95 -0.3 z M46.28 17.5 c0.6 0 1.07 -0.2 1.41 -0.6 s0.51 -1.1067 0.51 -2.12 s-0.17 -1.7233 -0.51 -2.13 s-0.81 -0.61 -1.41 -0.61 c-0.58666 0 -1.0567 0.21 -1.41 0.63 s-0.53 1.1233 -0.53 2.11 c0 1.0133 0.17334 1.72 0.52 2.12 s0.82 0.6 1.42 0.6 z M61.32 18.88 c-0.53334 0.42666 -1.1067 0.74334 -1.72 0.95 s-1.24 0.31 -1.88 0.31 c-0.69334 0 -1.3467 -0.09334 -1.96 -0.28 s-1.15 -0.49 -1.61 -0.91 s-0.82334 -0.96666 -1.09 -1.64 s-0.4 -1.49 -0.4 -2.45 c0 -0.94666 0.13334 -1.7567 0.4 -2.43 s0.63 -1.2267 1.09 -1.66 s0.99666 -0.75334 1.61 -0.96 s1.2667 -0.31 1.96 -0.31 c0.42666 0 0.89332 0.06 1.4 0.18 s1.0133 0.3 1.52 0.54 l-1.32 2.16 c-0.22666 -0.10666 -0.49332 -0.18332 -0.79998 -0.22998 s-0.57332 -0.07 -0.79998 -0.07 c-0.61334 0 -1.1233 0.21666 -1.53 0.65 s-0.61 1.1433 -0.61 2.13 c0 0.50666 0.05334 0.92 0.16 1.24 s0.25666 0.58 0.45 0.78 s0.42 0.34666 0.68 0.44 s0.54334 0.15334 0.85 0.18 c0.41334 0.04 0.82334 0.0066602 1.23 -0.1 s0.77 -0.28 1.09 -0.52 z M62.620000000000005 20 l0 -3.26 l3.26 0 l0 3.26 l-3.26 0 z"></path>
  </g>
</svg>